<?xml version="1.0" standalone="no"?><!DOCTYPE svg PUBLIC "-//W3C//DTD SVG 1.1//EN" "http://www.w3.org/Graphics/SVG/1.1/DTD/svg11.dtd"><svg class="icon" height="512" viewBox="0 0 1024 1024" version="1.1" xmlns="http://www.w3.org/2000/svg"><path d="M950.1 932c-12.2 12.2-32 12.2-44.2 0L704.3 730.4c-67.9 66.7-160.7 107.9-263.2 107.9-207.9 0-376.4-169.1-376.4-377.7S233.3 82.9 441.2 82.9 817.6 252 817.6 460.6c0 83.2-27.1 159.8-72.5 222.2l205 205c12.2 12.2 12.2 32 0 44.2zM440.8 146c-173.2 0-313.6 141-313.6 314.9s140.4 314.9 313.6 314.9 313.6-141 313.6-314.9S614.1 146 440.8 146z" /></svg>